:SAMPLES-PER-SECOND 30
:FRAME-RANGE 1-3549
:FULLY-SPECIFIED
:DEGREES
999
root  33.5029 38.6244 69.2949 -28.9671 -81.0338 30.3497
RightUpLeg  -22.6386 -2.25123 -4.72324
RightLeg  57.4111 -4.98759 -8.78719
RightFoot  -3.57271 -0.651528 9.21696
RightToes  -1.11029e-010 1.2921e-014 -6.02303e-014
Spine  8.44321 -1.77629 -8.22784
Spine1  1.50645 -3.14 1.9663
HEad  -8.57628 -48.5671 9.0341
LeftShoulder1  1.45529 -0.786424 -27.8169
LeftArm  -5.39127 -0.667516 -31.2153
LeftForeArm  14.4982 -9.17433 -13.3816
LeftHand  0.00187721 -0.308984 -0.00407001
RightShoulder  6.59691 8.18219 49.4621
RightArm  9.24859 1.31068 12.6191
RightForeArm  20.5359 -4.95338 17.4307
RightHand  -0.23937 4.04369 -3.21484
LeftUpLeg  -5.63262 18.0375 2.25708
LeftLeg  19.0038 2.35514 -1.93746
LeftFoot  -10.2123 0.168421 -10.8745
LeftToes  -1.9349e-011 -1.19469e-011 -2.02219e-012
1000
root  32.6283 38.9186 69.9652 -34.826 -82.9693 36.4583
RightUpLeg  -23.5982 -5.90078 -2.02691
RightLeg  48.4738 -6.12934 -7.69083
RightFoot  -4.92991 -0.564408 9.45556
RightToes  -1.11029e-010 1.2921e-014 -6.02303e-014
Spine  7.80754 -2.38814 -8.10319
Spine1  1.31704 -3.65767 2.43371
HEad  -8.29154 -47.1003 8.82064
LeftShoulder1  1.50304 -1.00635 -27.2065
LeftArm  0.171634 -3.61681 -31.6807
LeftForeArm  11.3727 -13.5629 -11.2225
LeftHand  -0.0455983 -0.620959 0.952618
RightShoulder  5.9819 7.27272 48.6403
RightArm  14.5842 0.313437 12.3629
RightForeArm  21.5742 -3.49192 17.8086
RightHand  -0.35103 4.15854 -4.53926
LeftUpLeg  -1.90593 13.2341 2.45725
LeftLeg  14.8099 8.8171 -2.51083
LeftFoot  -9.63382 0.232696 -11.7209
LeftToes  -1.9349e-011 -1.19469e-011 -2.02219e-012
1001
root  31.7422 39.1016 70.5514 -44.4776 -84.8236 46.5544
RightUpLeg  -23.4118 -9.55621 1.45411
RightLeg  36.6505 -7.97397 -6.57353
RightFoot  -4.93769 -0.564198 9.46236
RightToes  -1.11029e-010 1.2921e-014 -6.02303e-014
Spine  7.11558 -3.02393 -7.81362
Spine1  0.987288 -4.17066 2.82938
HEad  -7.93187 -45.6024 8.44504
LeftShoulder1  1.51355 -1.10538 -26.7035
LeftArm  5.53591 -6.2555 -31.3832
LeftForeArm  7.69205 -17.4666 -8.53621
LeftHand  -0.084042 -0.770513 1.67383
RightShoulder  5.25444 6.14415 47.722
RightArm  17.1601 -0.974585 12.2484
RightForeArm  20.0202 -1.34428 17.865
RightHand  -0.333624 4.35871 -4.25138
LeftUpLeg  1.16055 11.2228 2.11293
LeftLeg  11.0259 12.8326 -2.8483
LeftFoot  -8.95614 0.305773 -12.0827
LeftToes  -1.9349e-011 -1.19469e-011 -2.02219e-012
1002
root  30.794 39.1249 71.0691 -67.3636 -86.0339 69.7623
RightUpLeg  -21.8678 -14.9003 5.12229
RightLeg  22.5142 -7.69505 -3.69878
RightFoot  -4.90316 -0.622412 10.4436
RightToes  -1.11029e-010 1.2921e-014 -6.02303e-014
Spine  6.41842 -3.51915 -7.95875
Spine1  0.765674 -4.60605 3.24408
HEad  -7.61799 -44.0878 8.0162
LeftShoulder1  1.52051 -1.17167 -26.3763
LeftArm  8.59326 -8.6426 -30.4285
LeftForeArm  4.89579 -20.3464 -6.30504
LeftHand  -0.111975 -0.914078 2.16712
RightShoulder  4.23973 4.42572 46.8518
RightArm  21.3572 -1.69447 12.3252
RightForeArm  15.0419 1.76304 17.8354
RightHand  -0.28138 4.42374 -3.61011
LeftUpLeg  4.05893 10.9551 1.33331
LeftLeg  8.1615 14.8815 -3.14035
LeftFoot  -8.9406 0.315082 -12.4498
LeftToes  -1.9349e-011 -1.19469e-011 -2.02219e-012
1003
root  29.7796 38.9989 71.502 -96.6346 -86.0273 99.2834
RightUpLeg  -17.9558 -9.93627 4.3155
RightLeg  7.38867 -18.2336 1.68135
RightFoot  -4.26737 -0.692799 10.7071
RightToes  -1.11029e-010 1.2921e-014 -6.02303e-014
Spine  5.79883 -3.9179 -8.54685
Spine1  0.455256 -5.02617 3.82619
HEad  -7.38244 -42.5866 7.57312
LeftShoulder1  1.51852 -1.21988 -25.9886
LeftArm  8.96069 -10.6746 -29.3555
LeftForeArm  3.76383 -22.257 -5.13154
LeftHand  -0.124961 -1.03413 2.37387
RightShoulder  3.49646 3.13928 46.1221
RightArm  21.9374 -2.70209 12.3896
RightForeArm  13.8221 3.18946 17.4934
RightHand  -0.275979 4.57687 -3.50109
LeftUpLeg  6.45316 10.4152 0.167349
LeftLeg  6.61205 16.8167 -2.9218
LeftFoot  -10.1366 0.210147 -14.175
LeftToes  -1.9349e-011 -1.19469e-011 -2.02219e-012
1004
root  28.6756 38.6759 71.8985 -114.926 -84.6618 117.207
RightUpLeg  -14.8501 -1.21336 2.20262
RightLeg  -4.12363 -28.2953 7.87314
RightFoot  -4.3313 -0.572801 8.85181
RightToes  -1.11029e-010 1.2921e-014 -6.02303e-014
Spine  5.55198 -4.23937 -9.38756
Spine1  0.176248 -5.31967 4.00284
HEad  -7.35823 -41.25 7.10179
LeftShoulder1  1.56315 -1.38955 -25.7798
LeftArm  8.08161 -12.5913 -28.2308
LeftForeArm  4.11018 -23.2037 -4.84313
LeftHand  -0.131377 -1.09005 2.47412
RightShoulder  3.03304 2.29121 45.8767
RightArm  20.2173 -3.53322 12.1143
RightForeArm  14.3786 3.15621 17.3103
RightHand  -0.281156 4.44337 -3.60147
LeftUpLeg  8.56549 10.3056 -1.32878
LeftLeg  7.44419 18.005 -2.53036
LeftFoot  -12.254 -0.050438 -15.4267
LeftToes  -1.9349e-011 -1.19469e-011 -2.02219e-012
1005
root  27.5504 38.4405 72.2647 -126.705 -83.4483 128.413
RightUpLeg  -14.282 -0.231529 3.34742
RightLeg  -5.48292 -27.1007 7.99919
RightFoot  -1.6657 -0.25248 2.84745
RightToes  -1.11029e-010 1.2921e-014 -6.02303e-014
Spine  5.40067 -4.49924 -8.9283
Spine1  0.487325 -5.63376 3.91601
HEad  -7.37069 -39.9376 6.24456
LeftShoulder1  1.62592 -1.57845 -25.8314
LeftArm  7.49522 -13.9443 -27.3353
LeftForeArm  4.78609 -23.5497 -4.80319
LeftHand  -0.194553 -0.691127 3.81144
RightShoulder  2.81531 1.88291 45.8221
RightArm  16.8601 -4.08555 11.8701
RightForeArm  15.8189 1.51405 17.418
RightHand  -0.310161 4.32128 -3.98541
LeftUpLeg  11.0322 10.4843 -2.05494
LeftLeg  7.93345 18.8485 -2.65564
LeftFoot  -13.7746 -0.272291 -16.5865
LeftToes  -1.9349e-011 -1.19469e-011 -2.02219e-012
1006
root  26.4253 38.4016 72.6016 -144.017 -82.6772 145.193
RightUpLeg  -14.6139 1.3562 5.63529
RightLeg  -1.19554 -27.0113 4.98369
RightFoot  -0.520009 0.967104 -10.2097
RightToes  -1.11029e-010 1.2921e-014 -6.02303e-014
Spine  6.0427 -4.35087 -6.47971
Spine1  0.861189 -5.79308 4.06632
HEad  -7.63169 -38.863 4.8943
LeftShoulder1  1.64498 -1.59517 -26.111
LeftArm  7.85955 -14.4824 -27.2129
LeftForeArm  4.96767 -23.4927 -4.79055
LeftHand  -0.182937 -0.875648 3.49956
RightShoulder  2.68597 1.61483 46.0222
RightArm  12.7856 -4.0894 11.531
RightForeArm  17.3942 -1.25958 17.5403
RightHand  -0.293421 4.34137 -3.77901
LeftUpLeg  13.6751 10.9767 -1.06604
LeftLeg  8.02176 19.4066 -3.25912
LeftFoot  -14.1466 -0.366936 -18.2904
LeftToes  -1.9349e-011 -1.19469e-011 -2.02219e-012
1007
root  25.2353 38.2699 72.9193 -161.612 -81.2676 162.024
RightUpLeg  -16.5475 1.0765 7.96497
RightLeg  9.03641 -24.1476 -0.61489
RightFoot  -2.32544 0.889823 -11.4344
RightToes  -1.11029e-010 1.2921e-014 -6.02303e-014
Spine  7.05468 -4.34425 -3.18793
Spine1  0.691696 -5.58205 3.66222
HEad  -8.99769 -37.4422 4.22544
LeftShoulder1  1.59736 -1.30057 -27.1296
LeftArm  8.78944 -13.9215 -27.3432
LeftForeArm  4.88082 -23.6783 -4.8125
LeftHand  -0.217257 -0.379422 4.44677
RightShoulder  3.03161 2.12845 47.2176
RightArm  8.60065 -3.15813 10.42
RightForeArm  18.2598 -4.82773 17.4634
RightHand  -0.227033 4.25437 -3.00948
LeftUpLeg  15.3898 18.1546 2.71508
LeftLeg  12.5851 12.8413 -2.30028
LeftFoot  -14.8161 -0.558588 -21.1063
LeftToes  -1.9349e-011 -1.19469e-011 -2.02219e-012
1008
root  24.0114 38.1709 73.1734 -171.253 -79.3112 171.584
RightUpLeg  -17.088 -3.56433 10.5193
RightLeg  14.4098 -17.3099 -3.23653
RightFoot  -4.04972 0.660501 -10.7517
RightToes  -1.11029e-010 1.2921e-014 -6.02303e-014
Spine  6.90474 -4.41581 -0.869871
Spine1  0.881083 -5.50923 3.93424
HEad  -9.1194 -35.7965 3.00203
LeftShoulder1  1.59511 -1.22011 -27.6631
LeftArm  10.4657 -11.2108 -29.0568
LeftForeArm  5.00586 -23.475 -4.7882
LeftHand  -0.193432 -0.778403 3.74436
RightShoulder  3.72823 3.32222 47.8931
RightArm  2.89696 -2.66862 9.81662
RightForeArm  21.697 -6.10838 16.7829
RightHand  -0.127512 4.42089 -1.7922
LeftUpLeg  15.0299 31.1717 7.68989
LeftLeg  20.9567 0.908335 0.72183
LeftFoot  -12.9464 -0.297747 -26.3092
LeftToes  -1.9349e-011 -1.19469e-011 -2.02219e-012
1009
root  22.9166 38.0718 73.283 -175.156 -78.7181 175.687
RightUpLeg  -17.0858 -3.80044 10.7286
RightLeg  17.7786 -16.8831 -3.62508
RightFoot  -6.52709 0.43798 -11.4144
RightToes  -1.11029e-010 1.2921e-014 -6.02303e-014
Spine  6.6757 -4.70197 -0.151313
Spine1  1.00766 -5.9896 6.05059
HEad  -7.53714 -34.8416 1.99578
LeftShoulder1  1.61477 -1.29961 -27.5101
LeftArm  14.6863 -8.50269 -31.6211
LeftForeArm  3.59869 -22.1405 -5.2191
LeftHand  -0.168848 -1.05716 3.16223
RightShoulder  3.81645 3.49484 47.8131
RightArm  0.883371 -2.97503 10.4504
RightForeArm  21.0653 -6.45412 16.5711
RightHand  -0.0676964 4.0502 -1.10314
LeftUpLeg  9.71326 29.0469 8.35485
LeftLeg  32.2016 2.23802 1.87188
LeftFoot  -5.64361 1.63114 -31.3628
LeftToes  -1.9349e-011 -1.19469e-011 -2.02219e-012
1010
root  21.9133 37.877 73.3676 179.19 -78.0773 -178.173
RightUpLeg  -17.4076 -3.58825 11.6004
RightLeg  21.1531 -16.4985 -4.42545
RightFoot  -9.21395 0.137426 -10.7006
RightToes  -1.11029e-010 1.2921e-014 -6.02303e-014
Spine  6.84871 -4.67635 2.13868
Spine1  0.230926 -5.66663 6.96248
HEad  -5.6181 -35.0604 1.26305
LeftShoulder1  1.64854 -1.44761 -27.1789
LeftArm  18.1962 -7.15509 -34.2984
LeftForeArm  4.6668 -19.5657 -7.16978
LeftHand  -0.135162 -1.42362 2.44698
RightShoulder  3.3256 2.53911 48.2779
RightArm  2.90032 -3.88798 10.9567
RightForeArm  17.162 -6.24945 16.9277
RightHand  -0.0571298 4.23115 -0.966651
LeftUpLeg  2.38399 24.448 8.19545
LeftLeg  43.8904 2.23691 2.70061
LeftFoot  5.2035 4.07844 -27.771
LeftToes  -1.9349e-011 -1.19469e-011 -2.02219e-012
1011
root  21.0065 37.5789 73.4967 171.763 -76.3224 -170.749
RightUpLeg  -17.2204 -2.91634 13.1005
RightLeg  24.5401 -15.4453 -5.11731
RightFoot  -11.8373 -0.119791 -9.22863
RightToes  -1.11029e-010 1.2921e-014 -6.02303e-014
Spine  7.77426 -4.60365 6.01007
Spine1  -0.105028 -4.82977 6.51884
HEad  -5.42605 -35.1502 1.28365
LeftShoulder1  1.56993 -1.12991 -27.7794
LeftArm  21.0562 -6.90581 -35.0932
LeftForeArm  7.12464 -16.9956 -9.58116
LeftHand  -0.0899885 -1.67969 1.63493
RightShoulder  2.66442 1.31024 48.5992
RightArm  4.43638 -3.40046 12.8966
RightForeArm  18.2549 -6.06917 16.9057
RightHand  -0.0995026 4.48796 -1.45531
LeftUpLeg  -3.55228 21.3561 9.57898
LeftLeg  53.4856 -0.924168 -0.877821
LeftFoot  16.8613 4.45352 -18.0213
LeftToes  -1.9349e-011 -1.19469e-011 -2.02219e-012
